<svg width="220" height="30" viewBox="0 0 220 30" fill="none" xmlns="http://www.w3.org/2000/svg">
<path d="M11.7497 0.0987524C15.0746 0.0987524 17.2981 1.16968 18.42 3.31155C19.1952 4.92305 19.5828 6.50395 19.5828 8.05425H19.5522C17.2675 8.25823 15.707 8.36023 14.8707 8.36023C14.8707 7.2587 14.5341 6.33056 13.8609 5.5758C13.2082 5.20863 12.6166 5.02504 12.0862 5.02504H11.2295C9.82197 5.02504 8.96523 5.5758 8.65925 6.67733C8.57765 7.00371 8.53686 7.2485 8.53686 7.41169V7.87066C8.53686 9.42096 9.363 10.5531 11.0153 11.267C11.1581 11.3894 12.3004 11.9096 14.4423 12.8275C15.5846 13.3579 16.6453 14.0107 17.6245 14.7858V14.8164H12.3616V15.4284H19.3074V16.2545H20.1641V25.3421H18.4506V29.993H5.17107V25.3421H2.01947V22.1905H3.79416V21.1196H2.01947V20.3853H8.10848V25.3421H14.3505V17.8762H9.66898V15.4284H3.88595V14.8164H6.67037V14.7858C4.22253 13.1539 2.99861 10.8489 2.99861 7.87066V7.47288C2.99861 4.96384 3.76356 3.06676 5.29346 1.78165C6.70097 0.659717 8.85304 0.0987524 11.7497 0.0987524ZM19.3074 15.4284V14.8164H21.4186V15.4284H19.3074ZM0 22.1905V21.1196H2.01947V22.1905H0ZM13.4325 21.1196H14.0445C14.1057 21.1196 14.1363 21.1502 14.1363 21.2114V21.3644H13.6161V21.548H14.0751V21.701C14.0751 21.7622 14.0547 21.7928 14.0139 21.7928H13.6161V22.007H14.1363V22.1599C14.1363 22.2007 14.1057 22.2211 14.0445 22.2211H13.4325C13.3509 22.2211 13.3102 22.2007 13.3102 22.1599V21.2114C13.3306 21.1502 13.3713 21.1196 13.4325 21.1196ZM13.1572 22.5883H13.3407C13.3815 22.5883 13.5039 22.7107 13.7079 22.9555C13.8099 22.7107 13.8915 22.5883 13.9527 22.5883H14.0751C14.1567 22.5883 14.1975 22.6189 14.1975 22.6801C13.8915 23.0065 13.7385 23.3533 13.7385 23.7205H13.6161C13.5345 23.7205 13.4835 23.5267 13.4631 23.1391C13.2592 22.8739 13.1572 22.6903 13.1572 22.5883ZM13.0348 24.057H13.2184C13.3 24.057 13.3815 24.2712 13.4631 24.6996H13.5549C13.6365 24.2712 13.7181 24.057 13.7997 24.057H14.0139C14.0547 24.0774 14.0751 24.108 14.0751 24.1488V25.0668C14.0751 25.1484 14.0547 25.1892 14.0139 25.1892H13.8609V24.5466H13.7997L13.6161 25.1892H13.4631C13.3815 25.1892 13.3 24.975 13.2184 24.5466H13.1572V25.1892H13.0348C12.9532 25.1892 12.9124 25.1484 12.9124 25.0668V24.1488C12.9328 24.0876 12.9736 24.057 13.0348 24.057ZM18.7566 26.5967V25.5869H19.2462C19.5114 25.5869 19.6439 25.7195 19.6439 25.9847C19.5828 25.9847 19.5522 26.0153 19.5522 26.0765C19.6541 26.1989 19.7051 26.3111 19.7051 26.4131C19.6235 26.6171 19.44 26.7191 19.1544 26.7191H18.8484C18.7872 26.7191 18.7566 26.6783 18.7566 26.5967ZM19.338 25.8317H19.032V26.0153H19.2462C19.3074 26.0153 19.338 25.9847 19.338 25.9235V25.8317ZM19.3074 26.1989H19.032V26.4743H19.3074C19.3686 26.4743 19.3992 26.4335 19.3992 26.3519V26.3213C19.3992 26.2397 19.3686 26.1989 19.3074 26.1989ZM18.7566 28.0654V27.0556H18.9708C19.032 27.0556 19.1748 27.28 19.3992 27.7288H19.4298V27.0556H19.7051V28.0654C19.7051 28.147 19.6643 28.1878 19.5828 28.1878H19.491C19.4502 28.1878 19.287 27.9736 19.0014 27.5452V28.0654C19.0014 28.147 18.9708 28.1878 18.9096 28.1878H18.8484C18.7872 28.1878 18.7566 28.147 18.7566 28.0654ZM23.7135 14.9082V0.221145H38.37V5.11683C38.37 5.17803 38.3394 5.20863 38.2782 5.20863H29.5577V11.6648H37.3602V11.726C37.3602 11.8892 37.3398 12.9397 37.299 14.8776C37.2378 14.8776 37.2072 14.8878 37.2072 14.9082H37.5744V16.4075H30.8122V22.5271H29.007V23.1391H30.8122V25.0056H38.4617V25.6787H37.8804V29.3505H28.701V29.993H24.356V19.3143H23.7135V15.5508H18.9402V14.9082H23.7135ZM26.1919 14.9082H23.7441V15.5508H26.1919V14.9082ZM40.726 17.0195V0.0987524H50.9764C54.4033 0.0987524 56.6268 1.30228 57.6467 3.70932C58.0751 4.95364 58.2893 6.37135 58.2893 7.96245V9.21697C58.2893 12.1136 57.6569 14.3268 56.3922 15.8568H54.2198V16.9583H57.5243V24.1182H55.5661V25.2198H58.5341V29.4423H52.2921V22.6801H49.9054V18.3352H45.7135V25.7399H46.6008V29.993H40.8484C40.7668 29.993 40.726 29.9625 40.726 29.9013V17.8762H43.2962V17.0195H40.726ZM49.0793 4.96384H46.6008V13.4089H48.0389C50.1604 13.4089 51.3945 13.2049 51.7413 12.7969C52.0881 12.5726 52.3635 12.1238 52.5675 11.4506H54.7705V10.3797H52.751V10.4715C52.649 11.1243 52.5675 11.4506 52.5063 11.4506H49.6606V10.3797H52.6592C52.7204 10.3797 52.751 10.3491 52.751 10.2879C52.7918 9.43116 52.8122 8.94159 52.8122 8.8192C52.8122 6.96292 52.4859 5.82059 51.8331 5.39222C51.3435 5.10663 50.4256 4.96384 49.0793 4.96384ZM59.299 0.00695801H65.6328C65.694 0.353736 66.4998 4.24989 68.0501 11.6954H69.3658V12.8581H67.7747V11.6954H65.541V12.8581H67.7747V18.2128H68.4784V20.9972H70.2531V16.8971H70.9263V12.8581H72.1808V11.6954H71.2017C72.752 4.24989 73.5475 0.353736 73.5883 0.00695801H79.9527C77.6477 10.0227 76.4951 15.1224 76.4951 15.306V20.5077H74.751V21.548H76.0668V24.6078H73.7107V29.993H66.2448C66.1836 29.993 65.9796 29.2281 65.6328 27.6982H67.5605V26.4437H65.4492C65.3472 26.4437 65.1433 25.6379 64.8373 24.0264C64.6741 23.5369 62.828 15.5304 59.299 0.00695801ZM82.1558 0.00695801H87.7858C87.847 0.0273567 87.8776 0.0681544 87.8776 0.12935V14.694C87.8776 14.7552 87.847 14.7858 87.7858 14.7858H87.1433V29.9013C87.1433 29.9625 87.1025 29.993 87.0209 29.993H82.1558C82.0742 29.993 82.0334 29.9625 82.0334 29.9013V14.4186H80.5341C80.4729 14.4186 80.4423 14.388 80.4423 14.3268V13.6843C80.4423 13.6027 80.4729 13.5619 80.5341 13.5619H82.0334V0.12935C82.0538 0.0477557 82.0946 0.00695801 82.1558 0.00695801ZM84.9708 13.5619H82.0946V14.4186H84.9708V13.5619ZM100.484 0.00695801C104.666 0.00695801 107.287 1.32267 108.348 3.95411C108.674 4.58647 108.837 5.00464 108.837 5.20863H106.206V6.00418H109.051V5.97358C109.051 5.83079 108.98 5.5758 108.837 5.20863H113.672V6.00418H109.082V6.06537C109.327 7.1873 109.5 8.39083 109.602 9.67594C109.602 9.75754 107.766 9.89013 104.095 10.0737V10.0431C104.095 6.71813 102.962 5.05564 100.698 5.05564H100.056C98.3625 5.05564 97.3222 5.77979 96.9346 7.2281C96.649 8.45202 96.5063 10.0635 96.5063 12.0626V16.1627L96.4451 16.7441H94.5174V17.6926H96.4451V24.9444H104.492V17.4173H109.143V24.9444H106.573V29.5953H101.188V29.993H96.9958V29.5953H92.7427V27.2698H95.5883V26.2601H91.3352V22.8331H89.5299V18.58H90.509C90.4682 16.8665 90.4478 15.4998 90.4478 14.4798C90.4478 9.91053 90.662 7.03431 91.0904 5.85119C91.5188 4.48447 92.1919 3.31155 93.1099 2.33241C94.7622 0.782109 97.2202 0.00695801 100.484 0.00695801ZM112.693 14.9082V0.221145H127.349V5.11683C127.349 5.17803 127.318 5.20863 127.257 5.20863H118.537V11.6648H126.339V11.726C126.339 11.8892 126.319 12.9397 126.278 14.8776C126.217 14.8776 126.186 14.8878 126.186 14.9082H126.554V16.4075H119.791V22.5271H117.986V23.1391H119.791V25.0056H127.471V25.6787H126.86V29.3505H117.68V29.993H113.335V19.3143H112.693V15.5508H107.919V14.9082H112.693ZM115.171 14.9082H112.723V15.5508H115.171V14.9082ZM141.822 14.3574V0.0375564H150.91C154.724 0.0375564 157.356 1.33287 158.804 3.92351C159.987 5.94298 160.579 9.27817 160.579 13.9291H161.497V21.089H152.654V20.2935H155.407V13.9291H154.612V11.3282C154.612 8.37043 153.959 6.49375 152.654 5.6982C151.858 5.24942 150.614 5.02504 148.921 5.02504H147.697V13.7761H148.523V21.089H142.526V14.3574H141.822ZM154.765 18.8554H155.04V19.6203H155.224V19.8651H155.04V20.1711H154.765V19.8651H154.214V19.6815C154.581 19.1715 154.765 18.8962 154.765 18.8554ZM154.49 19.6203H154.765V19.3143C154.724 19.3143 154.632 19.4163 154.49 19.6203ZM149.196 20.2323L148.798 19.5897H149.104C149.145 19.5897 149.247 19.7019 149.41 19.9263C149.553 19.7631 149.624 19.6509 149.624 19.5897H149.961V19.6203C149.737 19.9467 149.624 20.1507 149.624 20.2323L150.022 20.8748H149.624C149.624 20.7728 149.543 20.6402 149.38 20.4771C149.257 20.7218 149.155 20.8544 149.074 20.8748H148.768C148.992 20.4669 149.135 20.2527 149.196 20.2323ZM139.16 22.0376V21.089H141.853V22.0376H148.523V24.0264H152.654V22.0376H161.497V24.0264H155.407V29.3505H148.523V29.993H141.914C141.853 29.993 141.822 29.9625 141.822 29.9013V22.0376H139.16ZM148.523 22.0376V21.089H152.654V22.0376H148.523ZM161.497 22.0376V21.089H167.371V22.0376H161.497ZM156.111 24.21H156.478C156.703 24.8628 156.846 25.3115 156.907 25.5563H156.662C156.601 25.5563 156.55 25.4645 156.509 25.2809H156.111C156.05 25.2809 155.999 25.3727 155.958 25.5563H155.652V25.5257C155.652 25.4849 155.805 25.0464 156.111 24.21ZM157.274 24.21H157.58L157.825 25.0668H157.855C157.855 25.0056 157.947 24.72 158.131 24.21H158.437C158.437 24.312 158.294 24.7608 158.008 25.5563H157.733C157.651 25.5563 157.498 25.1076 157.274 24.21ZM158.926 25.5563V24.21H159.293V25.5563H158.926ZM159.875 25.5563V24.21H160.456C160.885 24.21 161.099 24.4548 161.099 24.9444C161.099 25.2911 160.885 25.4951 160.456 25.5563H159.875ZM160.548 24.516H160.242V25.2809H160.548C160.589 25.2809 160.65 25.2096 160.732 25.0668V24.6996C160.732 24.6588 160.67 24.5976 160.548 24.516ZM156.325 24.6078H156.264C156.264 24.6486 156.223 24.7812 156.142 25.0056H156.417C156.356 24.7812 156.325 24.6486 156.325 24.6078ZM164.648 14.9082V0.221145H179.305V5.11683C179.305 5.17803 179.274 5.20863 179.213 5.20863H170.492V11.6648H178.295V11.726C178.295 11.8892 178.274 12.9397 178.234 14.8776C178.193 14.8776 178.172 14.8878 178.172 14.9082H178.509V16.4075H171.747V22.5271H169.942V23.1391H171.747V25.0056H179.427V25.6787H178.815V29.3505H169.636V29.993H165.291V19.3143H164.648V15.5508H159.875V14.9082H164.648ZM167.127 14.9082H164.679V15.5508H167.127V14.9082ZM191.85 0.0987524C195.175 0.0987524 197.398 1.16968 198.52 3.31155C199.316 4.92305 199.713 6.50395 199.713 8.05425H199.652C197.388 8.25823 195.838 8.36023 195.001 8.36023C195.001 7.2587 194.655 6.33056 193.961 5.5758C193.329 5.20863 192.737 5.02504 192.186 5.02504H191.36C189.932 5.02504 189.065 5.5758 188.759 6.67733C188.698 7.00371 188.668 7.2485 188.668 7.41169V7.87066C188.668 9.42096 189.484 10.5531 191.115 11.267C191.258 11.3894 192.401 11.9096 194.542 12.8275C195.705 13.3579 196.766 14.0107 197.725 14.7858V14.8164H192.492V15.4284H199.407V16.2545H200.295V25.3421H198.581V29.993H185.271V25.3421H182.12V22.1905H183.925V21.1196H182.12V20.3853H188.209V25.3421H194.451V17.8762H189.8V15.4284H183.986V14.8164H186.801V14.7858C184.353 13.1539 183.129 10.8489 183.129 7.87066V7.47288C183.129 4.96384 183.894 3.06676 185.424 1.78165C186.811 0.659717 188.953 0.0987524 191.85 0.0987524ZM199.407 15.4284V14.8164H201.519V15.4284H199.407ZM180.131 22.1905V21.1196H182.12V22.1905H180.131ZM201.825 26.5355V0.221145H207.7V5.82059C207.7 7.67687 207.659 9.68614 207.577 11.8484V11.9096H207.638C208.128 10.9917 209.454 8.63561 211.616 4.84145C212.718 2.92397 213.268 1.47566 213.268 0.496527V0.221145H219.266V0.343537C219.266 2.26101 218.48 4.35188 216.91 6.61614L213.36 11.7872L216.848 19.2225H220V20.1099H216.451V20.1711C217.022 21.4154 217.389 22.1497 217.552 22.3741H218.225V25.0668H219.113V29.9625C218.093 29.9829 217.338 29.993 216.848 29.993H215.41C214.9 29.993 214.197 29.9829 213.299 29.9625V26.6885H212.014V22.3741H211.249L210.453 20.1099H216.42V19.2225H210.943C210.943 19.1613 210.627 18.1618 209.994 16.2239H209.964C209.617 16.8563 208.944 17.8558 207.944 19.2225H210.453V20.1099H207.7V21.5786H207.332V28.3714H207.7V29.9013C207.7 29.9625 207.659 29.993 207.577 29.993H201.947C201.866 29.993 201.825 29.9625 201.825 29.9013V27.5452H204.487V26.5355H201.825ZM207.914 19.2225H204.242V20.1099H207.638C207.638 20.0079 207.73 19.7121 207.914 19.2225Z" fill="url(#paint0_linear_102_3)"/>
<defs>
<linearGradient id="paint0_linear_102_3" x1="-2.34379" y1="-1.23171" x2="19936.4" y2="9296.37" gradientUnits="userSpaceOnUse">
<stop stop-color="#0076DD"/>
<stop offset="1" stop-color="#00CDE9"/>
</linearGradient>
</defs>
</svg>
