<svg width="150" height="163" viewBox="0 0 150 163" fill="none" xmlns="http://www.w3.org/2000/svg">
<path d="M101.456 42.8332L93.2886 37.4439L83.6107 38.8258C80.8994 39.1865 79.0213 36.2254 80.5033 33.9264L85.8786 25.7608L84.4849 16.0751C84.1208 13.3616 87.0777 11.4862 89.3771 12.9722L97.5448 18.3615L107.223 16.9796C109.934 16.6189 111.812 19.58 110.33 21.8789L104.955 30.0446L106.349 39.7302C106.766 42.4096 103.756 44.3191 101.456 42.8332ZM135.027 57.2512L130.848 54.4659C128.548 52.98 125.591 54.8554 125.955 57.5689L126.694 62.5364L123.862 66.7485C122.38 69.0474 124.258 72.0086 126.969 71.6478L131.933 70.9156L136.146 73.7547C138.445 75.2407 141.402 73.3653 141.038 70.6518L140.3 65.6842L143.132 61.4722C144.614 59.1732 142.736 56.2121 140.024 56.5728L135.027 57.2512Z" fill="#B8282B"/>
<path d="M59.95 53C32.35 53 10 75.35 10 103C10 130.65 32.35 153 59.95 153C87.55 153 110 130.65 110 103C110 75.35 87.6 53 59.95 53ZM60 143C37.9 143 20 125.1 20 103C20 80.9 37.9 63 60 63C82.1 63 100 80.9 100 103C100 125.1 82.1 143 60 143ZM65 92.7L70.3 98L75.6 92.7L80.9 98L86.2 92.7L75.6 82.1L65 92.7ZM44.4 92.7L49.7 98L55 92.7L44.4 82.1L33.8 92.7L39.1 98L44.4 92.7ZM60 130.5C71.65 130.5 81.55 123.2 85.55 113H34.45C38.45 123.2 48.35 130.5 60 130.5Z" fill="#B8282B"/>
</svg>
