<svg width="136" height="59" viewBox="0 0 136 59" fill="none" xmlns="http://www.w3.org/2000/svg">
<path fill-rule="evenodd" clip-rule="evenodd" d="M32.0389 58.9515C49.7334 58.9515 64.0777 45.7548 64.0777 29.4758C64.0777 29.2214 64.0742 28.9678 64.0673 28.715C64.0679 28.7384 64.0685 28.7619 64.0691 28.7853H58.9389V32.4147C58.9389 33.5425 59.1542 34.3422 59.5848 34.8138C60.0154 35.2649 60.8971 35.4904 62.2299 35.4904C62.6506 35.4904 63.0471 35.4769 63.4192 35.45C62.963 37.489 62.2779 39.4511 61.3896 41.3125C61.0694 41.3271 60.7446 41.3343 60.4152 41.3343C58.3237 41.3343 56.5911 41.0267 55.2172 40.4116C53.8434 39.7759 52.8182 38.8635 52.1415 37.6742C51.4649 36.4849 51.1265 35.0701 51.1265 33.4297V28.7853H47.6509V25.4328L51.1265 23.6796L54.5406 18.2663H58.9389V23.0952H63.3251C60.156 9.88364 47.352 0 32.0389 0C14.3443 0 0 13.1967 0 29.4758C0 45.7548 14.3443 58.9515 32.0389 58.9515ZM15.635 21.8034C14.3227 21.8034 13.2667 21.4856 12.467 20.8499C11.6673 20.2143 11.2675 19.3428 11.2675 18.2356C11.2675 17.1283 11.6673 16.2569 12.467 15.6212C13.2667 14.9855 14.3227 14.6677 15.635 14.6677C16.9678 14.6677 18.0238 14.9855 18.803 15.6212C19.6027 16.2569 20.0025 17.1283 20.0025 18.2356C20.0025 19.3428 19.6027 20.2143 18.803 20.8499C18.0238 21.4856 16.9678 21.8034 15.635 21.8034ZM31.3092 40.7807V32.3532C31.3092 31.615 31.4425 30.9896 31.7091 30.477C31.9756 29.9439 32.355 29.544 32.8471 29.2774C33.3597 28.9904 33.9646 28.8468 34.6618 28.8468C35.646 28.8468 36.4047 29.1134 36.9378 29.6465C37.4914 30.1797 37.7682 30.9383 37.7682 31.9226V40.7807H45.5806V30.8153C45.5806 29.1544 45.2525 27.7088 44.5964 26.4785C43.9607 25.2277 43.038 24.264 41.8282 23.5873C40.6184 22.8902 39.1523 22.5416 37.4299 22.5416C36.0766 22.5416 34.8155 22.8594 33.6468 23.4951C32.478 24.1307 31.4835 25.0945 30.6633 26.3863L30.6391 26.424L30.6258 26.4449L30.0789 23.0952H22.2666L23.4969 29.4312V40.7807H31.3092ZM15.635 23.5258L11.7288 22.7261V40.7807H19.5412V22.7261L15.635 23.5258Z" fill="white"/>
<path d="M83.1857 40.7806L82.2937 34.5369L83.1857 31.9532L82.2937 29.4004L83.1857 23.0951H91.3056L90.0753 31.9225L91.3056 40.7806H83.1857ZM84.8158 31.9532C84.6108 33.8397 84.0981 35.4903 83.2779 36.9052C82.4782 38.2995 81.4222 39.3863 80.1099 40.1654C78.8181 40.9446 77.3315 41.3342 75.6501 41.3342C73.9277 41.3342 72.4104 40.9446 71.098 40.1654C69.8062 39.3863 68.7912 38.2892 68.0531 36.8744C67.3354 35.4596 66.9766 33.8192 66.9766 31.9532C66.9766 30.0668 67.3354 28.4162 68.0531 27.0013C68.7912 25.5865 69.8062 24.4895 71.098 23.7103C72.4104 22.9311 73.9277 22.5415 75.6501 22.5415C77.3315 22.5415 78.8181 22.9311 80.1099 23.7103C81.4222 24.469 82.4885 25.5557 83.3087 26.9706C84.1289 28.3649 84.6313 30.0258 84.8158 31.9532ZM74.8504 31.9532C74.8504 32.6299 74.9837 33.2348 75.2503 33.7679C75.5373 34.2805 75.9269 34.6906 76.4191 34.9982C76.9317 35.3058 77.5161 35.4596 78.1722 35.4596C78.8489 35.4596 79.505 35.3058 80.1407 34.9982C80.7763 34.6906 81.33 34.2805 81.8016 33.7679C82.2937 33.2348 82.632 32.6299 82.8166 31.9532C82.632 31.2766 82.2937 30.6717 81.8016 30.1386C81.33 29.6054 80.7763 29.1851 80.1407 28.8775C79.505 28.5699 78.8489 28.4162 78.1722 28.4162C77.5161 28.4162 76.9317 28.5699 76.4191 28.8775C75.9269 29.1851 75.5373 29.6054 75.2503 30.1386C74.9837 30.6717 74.8504 31.2766 74.8504 31.9532Z" fill="white"/>
<path d="M93.5682 23.0951H101.565L102.611 29.3389V40.7806H94.7985V29.2466L93.5682 23.0951ZM110.423 22.726V29.3389C109.726 29.2158 109.101 29.1338 108.547 29.0928C107.993 29.0313 107.501 29.0005 107.071 29.0005C106.291 29.0005 105.564 29.1441 104.887 29.4311C104.21 29.6977 103.657 30.1898 103.226 30.9075C102.816 31.6252 102.611 32.6504 102.611 33.9832L101.227 32.2608C101.432 30.9895 101.688 29.7797 101.996 28.6315C102.324 27.4627 102.754 26.4272 103.287 25.525C103.821 24.6022 104.497 23.8743 105.317 23.3412C106.138 22.8081 107.163 22.5415 108.393 22.5415C108.701 22.5415 109.019 22.562 109.347 22.603C109.675 22.6235 110.034 22.6645 110.423 22.726Z" fill="white"/>
<path d="M123.678 41.3342C121.341 41.3342 119.29 40.9446 117.527 40.1654C115.784 39.3863 114.42 38.2892 113.436 36.8744C112.472 35.4596 111.991 33.8192 111.991 31.9532C111.991 30.0668 112.472 28.4162 113.436 27.0013C114.42 25.5865 115.784 24.4895 117.527 23.7103C119.29 22.9311 121.341 22.5415 123.678 22.5415C126.016 22.5415 128.056 22.9311 129.799 23.7103C131.563 24.4895 132.926 25.5865 133.89 27.0013C134.874 28.4162 135.366 30.0668 135.366 31.9532C135.366 33.8192 134.874 35.4596 133.89 36.8744C132.926 38.2892 131.563 39.3863 129.799 40.1654C128.056 40.9446 126.016 41.3342 123.678 41.3342ZM123.678 35.6441C124.499 35.6441 125.185 35.5006 125.739 35.2135C126.313 34.9264 126.744 34.5061 127.031 33.9525C127.339 33.3988 127.492 32.7324 127.492 31.9532C127.492 31.1536 127.339 30.4769 127.031 29.9233C126.744 29.3696 126.313 28.9493 125.739 28.6622C125.185 28.3751 124.499 28.2316 123.678 28.2316C122.879 28.2316 122.192 28.3751 121.618 28.6622C121.044 28.9493 120.603 29.3696 120.295 29.9233C120.008 30.4769 119.864 31.1433 119.864 31.9225C119.864 32.7222 120.008 33.3988 120.295 33.9525C120.603 34.5061 121.044 34.9264 121.618 35.2135C122.192 35.5006 122.879 35.6441 123.678 35.6441Z" fill="white"/>
</svg>
