<svg xmlns="http://www.w3.org/2000/svg" width="136" height="59" fill="none" viewBox="0 0 136 59">
  <path fill="#B8282B" fill-rule="evenodd" d="M32.039 58.952c17.694 0 32.039-13.197 32.039-29.476 0-.255-.004-.508-.01-.761l.001.07h-5.13v3.63c0 1.127.215 1.927.646 2.399.43.45 1.312.676 2.645.676.42 0 .817-.013 1.19-.04a27.593 27.593 0 0 1-2.03 5.862c-.32.015-.645.022-.975.022-2.091 0-3.824-.307-5.198-.922-1.374-.636-2.399-1.548-3.075-2.738-.677-1.19-1.016-2.604-1.016-4.244v-4.645h-3.475v-3.352l3.475-1.753 3.415-5.414h4.398v4.83h4.386C60.156 9.883 47.352 0 32.04 0 14.344 0 0 13.197 0 29.476s14.344 29.476 32.039 29.476ZM15.635 21.803c-1.312 0-2.368-.317-3.168-.953-.8-.636-1.2-1.507-1.2-2.614 0-1.108.4-1.98 1.2-2.615.8-.636 1.856-.953 3.168-.953 1.333 0 2.389.318 3.168.953.8.636 1.2 1.507 1.2 2.615 0 1.107-.4 1.978-1.2 2.614-.78.636-1.835.953-3.168.953Zm15.674 18.978v-8.428c0-.738.133-1.363.4-1.876a2.69 2.69 0 0 1 1.138-1.2c.513-.287 1.118-.43 1.815-.43.984 0 1.743.266 2.276.8.553.533.83 1.291.83 2.276v8.858h7.813v-9.966c0-1.66-.329-3.106-.985-4.337a6.732 6.732 0 0 0-2.768-2.89c-1.21-.698-2.676-1.046-4.398-1.046a7.793 7.793 0 0 0-3.783.953c-1.169.636-2.163 1.6-2.984 2.891l-.024.038-.013.02-.547-3.349h-7.812l1.23 6.336v11.35h7.812ZM15.635 23.526l-3.906-.8v18.055h7.812V22.726l-3.906.8Z" clip-rule="evenodd"/>
  <path fill="#000" d="m83.185 40.78-.892-6.243.892-2.584-.892-2.553.892-6.305h8.12l-1.23 8.828 1.23 8.858h-8.12Zm1.63-8.827c-.205 1.887-.718 3.537-1.538 4.952-.8 1.395-1.856 2.481-3.168 3.26-1.292.78-2.778 1.17-4.46 1.17-1.722 0-3.24-.39-4.552-1.17-1.292-.779-2.307-1.876-3.045-3.29-.718-1.415-1.076-3.056-1.076-4.922 0-1.886.359-3.537 1.076-4.952.738-1.415 1.753-2.512 3.045-3.29 1.313-.78 2.83-1.17 4.552-1.17 1.682 0 3.168.39 4.46 1.17 1.312.758 2.379 1.845 3.199 3.26.82 1.394 1.322 3.055 1.507 4.982Zm-9.965 0c0 .677.133 1.282.4 1.815.287.513.676.923 1.168 1.23.513.308 1.097.462 1.753.462.677 0 1.333-.154 1.969-.462a5.476 5.476 0 0 0 1.66-1.23 4.319 4.319 0 0 0 1.016-1.815A4.319 4.319 0 0 0 81.8 30.14a5.25 5.25 0 0 0-1.661-1.261 4.469 4.469 0 0 0-1.969-.462c-.656 0-1.24.154-1.753.462a3.301 3.301 0 0 0-1.169 1.26c-.266.534-.4 1.139-.4 1.815ZM93.567 23.095h7.997l1.046 6.244V40.78h-7.812V29.247l-1.23-6.152Zm16.855-.369v6.613a18.943 18.943 0 0 0-1.876-.246A13.53 13.53 0 0 0 107.07 29c-.779 0-1.507.144-2.184.431-.677.267-1.23.759-1.661 1.476-.41.718-.615 1.743-.615 3.076l-1.384-1.722c.205-1.272.461-2.481.769-3.63.328-1.168.759-2.204 1.292-3.106.533-.923 1.209-1.65 2.03-2.184.82-.533 1.845-.8 3.075-.8.308 0 .626.021.954.062.328.02.687.061 1.076.123ZM123.678 41.334c-2.338 0-4.389-.39-6.152-1.169-1.743-.779-3.106-1.876-4.091-3.29-.963-1.415-1.445-3.056-1.445-4.922 0-1.886.482-3.537 1.445-4.952.985-1.415 2.348-2.512 4.091-3.29 1.763-.78 3.814-1.17 6.152-1.17 2.337 0 4.377.39 6.12 1.17 1.764.779 3.127 1.876 4.091 3.29.984 1.415 1.476 3.066 1.476 4.952 0 1.866-.492 3.507-1.476 4.921-.964 1.415-2.327 2.512-4.091 3.291-1.743.78-3.783 1.17-6.12 1.17Zm0-5.69c.82 0 1.507-.143 2.06-.43a2.85 2.85 0 0 0 1.292-1.261c.308-.554.461-1.22.461-2 0-.8-.153-1.476-.461-2.03a2.85 2.85 0 0 0-1.292-1.26c-.553-.288-1.24-.431-2.06-.431-.8 0-1.487.143-2.061.43a3.028 3.028 0 0 0-1.323 1.261c-.287.554-.43 1.22-.43 2 0 .8.143 1.476.43 2.03.308.553.749.973 1.323 1.26.574.288 1.261.431 2.061.431Z"/>
</svg>
